<?xml version="1.0" standalone="no"?>
<!DOCTYPE svg PUBLIC "-//W3C//DTD SVG 20010904//EN"
 "http://www.w3.org/TR/2001/REC-SVG-20010904/DTD/svg10.dtd">
<svg version="1.0" xmlns="http://www.w3.org/2000/svg"
 width="400.000000pt" height="400.000000pt" viewBox="0 0 400.000000 400.000000"
 preserveAspectRatio="xMidYMid meet">
<metadata>
Created by potrace 1.14, written by Peter Selinger 2001-2017
</metadata>
<g transform="translate(0.000000,400.000000) scale(0.100000,-0.100000)"
fill="#000000" stroke="none">
<path d="M1733 3268 c-1 -44 -6 -87 -19 -174 -4 -27 -8 -83 -8 -124 -1 -76
-10 -105 -27 -95 -5 4 -9 3 -9 -2 0 -4 -13 -14 -29 -21 -26 -11 -28 -16 -22
-45 9 -43 8 -62 -4 -62 -23 -1 -75 -37 -132 -91 -18 -17 -34 -29 -37 -27 -2 3
-7 -5 -11 -16 -3 -12 -10 -21 -15 -21 -21 0 -136 -211 -123 -224 4 -3 1 -6 -5
-6 -7 0 -12 -9 -12 -19 0 -11 -4 -22 -9 -25 -5 -3 -7 -15 -4 -26 3 -11 1 -20
-4 -20 -5 0 -10 -6 -10 -12 -1 -7 -4 -31 -8 -53 -3 -22 -9 -71 -12 -110 -3
-38 -10 -76 -16 -83 -8 -10 -7 -16 2 -21 10 -7 11 -13 1 -31 -9 -17 -9 -21 0
-15 9 6 9 3 1 -13 -8 -15 -8 -21 1 -24 8 -3 8 -9 0 -25 -7 -12 -8 -23 -3 -25
5 -2 11 -47 14 -101 3 -54 11 -105 18 -113 9 -11 9 -14 0 -14 -7 0 -9 -5 -4
-12 4 -7 8 -17 8 -23 3 -31 65 -238 75 -249 5 -5 6 -15 3 -22 -3 -8 0 -14 6
-14 6 0 11 -4 11 -9 0 -5 7 -25 15 -45 8 -20 15 -39 14 -42 0 -4 3 -10 8 -13
5 -3 20 -24 33 -46 13 -22 29 -43 34 -47 6 -4 7 -8 3 -8 -9 0 -1 -11 65 -83
47 -51 50 -59 23 -63 -30 -4 -85 -57 -100 -98 -11 -30 -22 -42 -37 -43 -37 -3
-178 -62 -178 -75 0 -4 -6 -8 -14 -8 -7 0 -19 -7 -26 -15 -11 -13 -16 -13 -29
-2 -27 22 -98 57 -115 57 -9 0 -16 4 -16 8 0 8 -5 9 -91 15 -25 2 -50 7 -56
10 -6 4 -13 4 -16 0 -6 -5 -27 -8 -134 -15 -13 -1 -23 -5 -23 -9 0 -4 -16 -10
-35 -13 -44 -9 -145 -55 -145 -67 0 -5 -7 -9 -15 -9 -8 0 -24 -9 -35 -20 -11
-11 -23 -20 -26 -20 -9 0 -94 -92 -94 -101 0 -4 -6 -14 -13 -21 -6 -7 -19 -26
-27 -43 -8 -16 -21 -39 -30 -49 -13 -17 -13 -18 0 -11 13 8 13 7 0 -9 -8 -10
-15 -25 -16 -33 -1 -8 -6 -22 -10 -31 -10 -23 -9 -20 -19 -82 -13 -86 -3 -231
16 -238 5 -2 9 -10 9 -18 0 -12 263 -14 1865 -14 l1865 0 0 359 0 360 -27 20
c-14 12 -37 24 -50 27 -12 4 -23 10 -23 15 0 5 -9 9 -19 9 -11 0 -22 4 -26 9
-5 9 -101 41 -135 46 -8 1 -35 5 -60 9 -86 14 -220 7 -276 -14 -12 -5 -25 -6
-28 -3 -3 4 -6 1 -6 -5 0 -7 -6 -12 -14 -12 -18 0 -150 -69 -154 -81 -2 -5 -9
-9 -15 -9 -7 0 -23 -12 -36 -25 -13 -14 -27 -25 -32 -25 -5 0 -9 -6 -9 -13 0
-7 -9 -18 -20 -25 -18 -11 -20 -10 -20 11 0 13 -9 41 -19 63 -11 21 -17 43
-14 48 4 5 1 6 -5 2 -7 -4 -12 -1 -12 9 0 17 -43 63 -77 82 -45 25 -129 53
-178 59 -46 6 -80 28 -69 46 3 5 0 8 -5 8 -6 0 -11 7 -11 15 0 8 -7 15 -15 15
-7 0 -18 8 -24 17 -5 10 -13 17 -18 17 -4 -1 -18 2 -31 7 -13 5 -32 9 -43 9
-10 0 -19 4 -19 8 0 5 -21 10 -46 11 -39 1 -100 20 -68 21 6 0 19 16 30 35 10
19 22 35 26 35 4 0 12 16 19 35 7 19 17 35 21 35 4 0 7 3 6 8 -1 4 5 21 12 37
13 30 19 48 24 75 1 8 5 22 9 30 16 41 29 288 15 296 -9 6 -5 40 5 50 4 4 3
12 -3 18 -5 7 -11 79 -14 161 -7 190 -12 270 -18 281 -3 5 -4 21 -3 37 1 15
-2 27 -7 27 -4 0 -7 3 -7 8 1 4 1 9 0 12 -1 3 -4 25 -7 49 -2 24 -8 49 -13 55
-5 6 -12 27 -16 46 -8 40 -45 121 -60 132 -5 4 -7 8 -2 8 9 0 -38 73 -73 114
-40 47 -63 67 -95 83 -16 9 -32 19 -35 22 -10 14 -101 42 -139 44 -21 1 -37 5
-36 8 9 14 -43 62 -68 62 -15 0 -27 5 -27 11 0 6 -4 4 -10 -4 -7 -11 -11 -8
-20 15 -6 17 -11 30 -10 30 0 0 -13 37 -29 82 -16 45 -27 84 -23 87 3 3 1 6
-5 6 -10 0 -29 64 -25 83 1 4 -2 7 -6 7 -5 0 -17 19 -28 43 -17 39 -31 56 -45
57 -3 0 -6 -19 -6 -42z"/>
</g>
</svg>
